<svg xmlns="http://www.w3.org/2000/svg" viewBox="55.0 135.0 778.0 259.0" width="778" height="259"><path d="M85.45 320.00 L85.45 170.00 L164.26 248.81 L243.08 170.00 L243.08 320.00" fill="none" stroke="#000000" stroke-width="24.61" stroke-linejoin="round" stroke-linecap="round"/><path d="M386.87050359712225 201.0791366906475 313.9208633093525 375.8992805755396H288.45323741007195L312.62589928057554 318.0575539568345L265.7913669064748 201.0791366906475H293.2014388489209L326.6546762589928 291.72661870503595L361.40287769784175 201.0791366906475Z" fill="#000000"/><path d="M401.55 170.00 L401.55 320.00 L480.36 241.19 L559.18 320.00 L559.18 170.00" fill="none" stroke="#000000" stroke-width="24.61" stroke-linejoin="round" stroke-linecap="round"/><path d="M704.0484392147299 269.71223021582733H613.1851298622119Q614.2642665528593 283.9568345323741 623.7606694305572 292.58992805755395Q633.257072308255 301.2230215827338 647.0700219485428 301.2230215827338Q666.9261370564565 301.2230215827338 675.1275759053774 284.60431654676256H701.6743384953054Q696.2786550420681 301.0071942446043 682.141964394586 311.4748201438849Q668.005273747104 321.9424460431655 647.0700219485428 321.9424460431655Q630.0196622363126 321.9424460431655 616.530453603219 314.28057553956836Q603.0412449701256 306.61870503597123 595.3793744665285 292.6978417266187Q587.7175039629313 278.7769784172662 587.7175039629313 260.431654676259Q587.7175039629313 242.0863309352518 595.1635471283989 228.16546762589928Q602.6095902938666 214.24460431654677 616.0987989269602 206.6906474820144Q629.5880075600536 199.13669064748203 647.0700219485428 199.13669064748203Q663.9045543226435 199.13669064748203 677.0700219485428 206.4748201438849Q690.2354895744421 213.81294964028777 697.573619070845 227.0863309352518Q704.9117485672479 240.35971223021585 704.9117485672479 257.62589928057554Q704.9117485672479 264.31654676258995 704.0484392147299 269.71223021582733ZM679.2282953298378 249.85611510791367Q679.0124679917083 236.25899280575538 669.5160651140104 228.0575539568345Q660.0196622363126 219.85611510791367 645.9908852578953 219.85611510791367Q633.257072308255 219.85611510791367 624.1923241068162 227.9496402877698Q615.1275759053774 236.0431654676259 613.4009572003414 249.85611510791367Z" fill="#000000"/><path d="M753.688726984514 160.28776978417267V320.0H729.0844104377514V160.28776978417267Z" fill="#000000"/><path d="M782.8254176319961 169.56834532374103Q782.8254176319961 162.87769784172662 787.3577917327154 158.34532374100718Q791.8901658334349 153.81294964028777 798.5808133154493 153.81294964028777Q805.0556334593342 153.81294964028777 809.5880075600537 158.34532374100718Q814.1203816607731 162.87769784172662 814.1203816607731 169.56834532374103Q814.1203816607731 176.2589928057554 809.5880075600537 180.79136690647482Q805.0556334593342 185.32374100719426 798.5808133154493 185.32374100719426Q791.8901658334349 185.32374100719426 787.3577917327154 180.79136690647482Q782.8254176319961 176.2589928057554 782.8254176319961 169.56834532374103ZM810.6671442507011 201.0791366906475V320.0H786.0628277039385V201.0791366906475Z" fill="#000000"/></svg>