<svg xmlns="http://www.w3.org/2000/svg" width="720" height="1280" viewBox="0 0 720 1280">
  <defs>
    <linearGradient id="bg" x1="0" y1="0" x2="1" y2="1">
      <stop offset="0" stop-color="#0B1A2A"/>
      <stop offset="1" stop-color="#112F4B"/>
    </linearGradient>
    <linearGradient id="accent" x1="0" y1="0" x2="1" y2="1">
      <stop offset="0" stop-color="#4DD0E1"/>
      <stop offset="1" stop-color="#A5F0FF"/>
    </linearGradient>
  </defs>
  <rect width="720" height="1280" fill="url(#bg)"/>
  <circle cx="560" cy="260" r="280" fill="url(#accent)" opacity="0.20"/>
  <circle cx="120" cy="980" r="340" fill="url(#accent)" opacity="0.16"/>

  <text x="360" y="340" text-anchor="middle" font-family="Helvetica, Arial, sans-serif" font-size="44" font-weight="800" fill="#FFFFFF">Nouveau salon</text>
  <text x="360" y="400" text-anchor="middle" font-family="Helvetica, Arial, sans-serif" font-size="22" fill="#D7F7FF">Découvrez les nouveautés près de vous</text>

  <g transform="translate(120 520)">
    <rect width="480" height="420" rx="38" fill="#FFFFFF" opacity="0.10"/>
    <circle cx="240" cy="150" r="74" fill="url(#accent)" opacity="0.9"/>
    <path d="M220 130c0-12 10-22 22-22s22 10 22 22c0 5-2 10-5 14l-17 20-17-20c-3-4-5-9-5-14z" fill="#0B1A2A"/>
    <text x="240" y="285" text-anchor="middle" font-family="Helvetica, Arial, sans-serif" font-size="28" font-weight="800" fill="#FFFFFF">Beauté Divine</text>
    <text x="240" y="325" text-anchor="middle" font-family="Helvetica, Arial, sans-serif" font-size="18" fill="#D7F7FF">Marcory · Zone 4</text>
    <rect x="130" y="350" width="220" height="56" rx="28" fill="url(#accent)"/>
    <text x="240" y="387" text-anchor="middle" font-family="Helvetica, Arial, sans-serif" font-size="18" font-weight="700" fill="#0B1A2A">Voir le salon</text>
  </g>
</svg>

