<svg xmlns="http://www.w3.org/2000/svg" viewBox="176.0 136.0 575.0 228.0" width="575" height="228"><path d="M205.34 165.00 L250.00 209.66 L294.66 165.00 L294.66 335.00 L250.00 290.34 L205.34 335.00 Z" fill="none" stroke="currentColor" stroke-width="21.32" stroke-linejoin="round" stroke-linecap="round"/><path d="M369.26 275.43 L369.26 200.63 L408.56 239.93 L447.86 200.63 L447.86 275.43" fill="none" stroke="currentColor" stroke-width="12.27" stroke-linejoin="round" stroke-linecap="round"/><path d="M519.5660834044629 216.1301294964029 483.18852944762835 303.3071079136691H470.4886733325204L482.5427740519449 274.46336690647485L459.18795390806 216.1301294964029H472.8564431166931L489.5384575051823 261.3330071942446L506.866227289355 216.1301294964029Z" fill="currentColor"/><path d="M526.89 200.63 L526.89 275.43 L566.19 236.13 L605.49 275.43 L605.49 200.63" fill="none" stroke="currentColor" stroke-width="12.27" stroke-linejoin="round" stroke-linecap="round"/><path d="M677.7321472991099 250.3551654676259H632.4216437019876Q632.9597731983905 257.4584748201439 637.6953127667358 261.7635107913669Q642.4308523350811 266.06854676258996 649.318909889038 266.06854676258996Q659.220492622851 266.06854676258996 663.3102767955128 257.7813525179856H676.5482624070236Q673.8576149250092 265.96092086330935 666.8081185221315 271.18077697841727Q659.7586221192538 276.4006330935252 649.318909889038 276.4006330935252Q640.8164638458725 276.4006330935252 634.0898451408366 272.57991366906475Q627.3632264358006 268.7591942446043 623.5425070113401 261.8173237410072Q619.7217875868797 254.87545323741008 619.7217875868797 245.72725179856116Q619.7217875868797 236.57905035971226 623.4348811120597 229.63717985611513Q627.1479746372395 222.695309352518 633.8745933422754 218.92840287769786Q640.6012120473114 215.16149640287773 649.318909889038 215.16149640287773Q657.7137300329229 215.16149640287773 664.278909889038 218.82077697841729Q670.844089745153 222.48005755395684 674.5033703206926 229.09905035971224Q678.1626508962322 235.71804316546763 678.1626508962322 244.32811510791367Q678.1626508962322 247.66451798561152 677.7321472991099 250.3551654676259ZM665.3551688818437 240.45358273381296Q665.2475429825631 233.67315107913672 660.5120034142178 229.58336690647485Q655.7764638458725 225.49358273381296 648.7807803926352 225.49358273381296Q642.4308523350811 225.49358273381296 637.9105645652969 229.52955395683455Q633.3902767955128 233.56552517985614 632.5292696012682 240.45358273381296Z" fill="currentColor"/><path d="M702.4861041336422 195.78883453237412V275.432H690.2167516156567V195.78883453237412Z" fill="currentColor"/><path d="M717.01560053652 200.41674820143885Q717.01560053652 197.08034532374103 719.2757444214121 194.82020143884893Q721.5358883063042 192.56005755395685 724.8722911840019 192.56005755395685Q728.1010681624192 192.56005755395685 730.3612120473113 194.82020143884893Q732.6213559322034 197.08034532374103 732.6213559322034 200.41674820143885Q732.6213559322034 203.75315107913673 730.3612120473113 206.0132949640288Q728.1010681624192 208.27343884892088 724.8722911840019 208.27343884892088Q721.5358883063042 208.27343884892088 719.2757444214121 206.0132949640288Q717.01560053652 203.75315107913673 717.01560053652 200.41674820143885ZM730.8993415437142 216.1301294964029V275.432H718.6299890257286V216.1301294964029Z" fill="currentColor"/></svg>