<svg xmlns="http://www.w3.org/2000/svg" viewBox="288.0 85.0 319.0 386.0" width="319" height="386"><path d="M400.08 115.00 L450.00 164.92 L499.92 115.00 L499.92 305.00 L450.00 255.08 L400.08 305.00 Z" fill="none" stroke="#ffffff" stroke-width="23.83" stroke-linejoin="round" stroke-linecap="round"/><path d="M311.47 430.92 L311.47 373.92 L341.42 403.86 L371.37 373.92 L371.37 430.92" fill="none" stroke="#ffffff" stroke-width="9.35" stroke-linejoin="round" stroke-linecap="round"/><path d="M426.01079136690646 385.72532617973417 398.28992805755394 452.1569808559932H388.6122302158273L397.7978417266187 430.17712474088523L380.00071942446044 385.72532617973417H390.4165467625899L403.12877697841725 420.1713693452018L416.33309352517983 385.72532617973417Z" fill="#ffffff"/><path d="M431.59 373.92 L431.59 430.92 L461.54 400.97 L491.49 430.92 L491.49 373.92" fill="none" stroke="#ffffff" stroke-width="9.35" stroke-linejoin="round" stroke-linecap="round"/><path d="M546.5384069015973 411.80590171930254H512.0103493476405Q512.4204212900866 417.2188513595903 516.0290543836118 420.4994268991586Q519.6376874771369 423.78000243872697 524.8866083404463 423.78000243872697Q532.4319320814534 423.78000243872697 535.5484788440434 417.4648945250579H545.6362486282161Q543.5858889159858 423.69798805023777 538.2139464699426 427.6756858919644Q532.8420040238994 431.65338373369104 524.8866083404463 431.65338373369104Q518.4074716497988 431.65338373369104 513.2815723692232 428.7418729423241Q508.1556730886477 425.8303621509572 505.2441622972808 420.5404340934033Q502.3326515059139 415.2505060358493 502.3326515059139 408.2792830142665Q502.3326515059139 401.3080599926838 505.16214790879155 396.0181319351299Q507.9916443116693 390.7282038775759 513.1175435922448 387.8577002804536Q518.2434428728203 384.9871966833313 524.8866083404463 384.9871966833313Q531.2837306426045 384.9871966833313 536.2866083404463 387.7756858919644Q541.289486038288 390.5641751005975 544.0779752469211 395.6080599926838Q546.8664644555541 400.65194488477016 546.8664644555541 407.2130959639068Q546.8664644555541 409.75554200707234 546.5384069015973 411.80590171930254ZM537.1067522253384 404.2605779782953Q537.0247378368491 399.0936715034752 533.416104743324 395.9771247408853Q529.8074716497988 392.86057797829534 524.4765363980002 392.86057797829534Q519.6376874771369 392.86057797829534 516.19308316059 395.9361175466406Q512.7484788440433 399.01165711498595 512.0923637361298 404.2605779782953Z" fill="#ffffff"/><path d="M565.4017162541153 370.2246067552737V430.91525423728814H556.0520759663456V370.2246067552737Z" fill="#ffffff"/><path d="M576.4736587001585 373.75122546030974Q576.4736587001585 371.2087794171442 578.1959608584318 369.4864772588709Q579.9182630167053 367.76417510059747 582.4607090598707 367.76417510059747Q584.9211407145469 367.76417510059747 586.6434428728203 369.4864772588709Q588.3657450310938 371.2087794171442 588.3657450310938 373.75122546030974Q588.3657450310938 376.2936715034752 586.6434428728203 378.0159736617486Q584.9211407145469 379.73827582002195 582.4607090598707 379.73827582002195Q579.9182630167053 379.73827582002195 578.1959608584318 378.0159736617486Q576.4736587001585 376.2936715034752 576.4736587001585 373.75122546030974ZM587.0535148152663 385.72532617973417V430.91525423728814H577.7038745274966V385.72532617973417Z" fill="#ffffff"/></svg>