<svg xmlns="http://www.w3.org/2000/svg" width="800" height="600" viewBox="0 0 800 600">
  <defs>
    <linearGradient id="bg" x1="0" y1="0" x2="1" y2="1">
      <stop offset="0" stop-color="#FFE6C7"/>
      <stop offset="1" stop-color="#FFF7EE"/>
    </linearGradient>
  </defs>
  <rect width="800" height="600" fill="url(#bg)"/>
  <circle cx="650" cy="160" r="160" fill="#FFFFFF" opacity="0.35"/>
  <circle cx="120" cy="490" r="200" fill="#FFFFFF" opacity="0.35"/>

  <rect x="90" y="110" width="620" height="380" rx="34" fill="#FFFFFF" opacity="0.95"/>

  <g transform="translate(400 250)">
    <circle r="70" fill="#6D4C41" opacity="0.12"/>
    <path d="M-34 10c18-16 26-42 24-64 26 10 44 35 44 64 0 34-28 62-62 62S-90 44-90 10c0-29 18-54 44-64-2 22 6 48 24 64z" fill="#6D4C41"/>
    <rect x="-8" y="18" width="16" height="32" rx="8" fill="#FFFFFF"/>
  </g>

  <text x="400" y="410" text-anchor="middle" font-family="Helvetica, Arial, sans-serif" font-size="38" font-weight="700" fill="#1F1F1F">Barber Shop Pro</text>
  <text x="400" y="452" text-anchor="middle" font-family="Helvetica, Arial, sans-serif" font-size="22" fill="#6B6B6B">Abidjan · Plateau</text>
</svg>

