<svg xmlns="http://www.w3.org/2000/svg" width="800" height="600" viewBox="0 0 800 600">
  <defs>
    <linearGradient id="bg" x1="0" y1="0" x2="1" y2="1">
      <stop offset="0" stop-color="#C7E7FF"/>
      <stop offset="1" stop-color="#F2FAFF"/>
    </linearGradient>
  </defs>
  <rect width="800" height="600" fill="url(#bg)"/>
  <circle cx="640" cy="140" r="150" fill="#FFFFFF" opacity="0.35"/>
  <circle cx="120" cy="480" r="190" fill="#FFFFFF" opacity="0.35"/>

  <rect x="90" y="110" width="620" height="380" rx="34" fill="#FFFFFF" opacity="0.95"/>

  <g transform="translate(400 250)">
    <circle r="70" fill="#1976D2" opacity="0.12"/>
    <path d="M0 -46c18 0 34 10 42 25-8 9-18 16-31 20 6 8 9 18 9 29H-20c0-11 3-21 9-29-13-4-23-11-31-20 8-15 24-25 42-25z" fill="#1976D2"/>
    <circle cx="0" cy="-14" r="10" fill="#FFFFFF"/>
  </g>

  <text x="400" y="410" text-anchor="middle" font-family="Helvetica, Arial, sans-serif" font-size="38" font-weight="700" fill="#1F1F1F">Beauté Divine</text>
  <text x="400" y="452" text-anchor="middle" font-family="Helvetica, Arial, sans-serif" font-size="22" fill="#6B6B6B">Abidjan · Marcory</text>
</svg>

