<svg xmlns="http://www.w3.org/2000/svg" width="800" height="600" viewBox="0 0 800 600">
  <defs>
    <linearGradient id="bg" x1="0" y1="0" x2="1" y2="1">
      <stop offset="0" stop-color="#CFF5E6"/>
      <stop offset="1" stop-color="#F4FFFB"/>
    </linearGradient>
  </defs>
  <rect width="800" height="600" fill="url(#bg)"/>
  <circle cx="640" cy="150" r="160" fill="#FFFFFF" opacity="0.35"/>
  <circle cx="140" cy="500" r="190" fill="#FFFFFF" opacity="0.35"/>

  <rect x="90" y="110" width="620" height="380" rx="34" fill="#FFFFFF" opacity="0.95"/>

  <g transform="translate(400 252)">
    <circle r="70" fill="#2E7D32" opacity="0.12"/>
    <path d="M0 -52c20 18 28 37 24 56-5 22-25 38-49 38-24 0-44-16-49-38-4-19 4-38 24-56 8-7 16-10 25-10s17 3 25 10z" fill="#2E7D32"/>
    <path d="M-8 -8c10-10 22-10 32 0" stroke="#FFFFFF" stroke-width="6" stroke-linecap="round"/>
  </g>

  <text x="400" y="410" text-anchor="middle" font-family="Helvetica, Arial, sans-serif" font-size="38" font-weight="700" fill="#1F1F1F">Spa Relax</text>
  <text x="400" y="452" text-anchor="middle" font-family="Helvetica, Arial, sans-serif" font-size="22" fill="#6B6B6B">Abidjan · Yopougon</text>
</svg>

